<mxfile host="app.diagrams.net" modified="2023-09-22T00:20:34.595Z" agent="Mozilla/5.0 (Windows NT 10.0; Win64; x64) AppleWebKit/537.36 (KHTML, like Gecko) Chrome/116.0.0.0 Safari/537.36" etag="NZNqIGAuaSycFdHw_cKf" version="21.8.0" type="github">
  <diagram name="Page-1" id="9l_kouYREGQ1m94SEPa7">
    <mxGraphModel dx="671" dy="1012" grid="1" gridSize="10" guides="1" tooltips="1" connect="1" arrows="1" fold="1" page="1" pageScale="1" pageWidth="4681" pageHeight="3300" math="0" shadow="0">
      <root>
        <mxCell id="0" />
        <mxCell id="1" parent="0" />
        <mxCell id="C6-elkd42mYy8gBF11th-2" value="&lt;span style=&quot;font-size: 19px;&quot;&gt;Learner&lt;/span&gt;" style="swimlane;fontStyle=0;childLayout=stackLayout;horizontal=1;startSize=40;horizontalStack=0;resizeParent=1;resizeParentMax=0;resizeLast=0;collapsible=1;marginBottom=0;whiteSpace=wrap;html=1;" vertex="1" parent="1">
          <mxGeometry x="220" y="180" width="180" height="90" as="geometry" />
        </mxCell>
        <mxCell id="C6-elkd42mYy8gBF11th-3" value="&lt;font style=&quot;font-size: 19px;&quot;&gt;learn;&lt;/font&gt;" style="text;strokeColor=none;fillColor=none;align=center;verticalAlign=middle;spacingLeft=4;spacingRight=4;overflow=hidden;points=[[0,0.5],[1,0.5]];portConstraint=eastwest;rotatable=0;whiteSpace=wrap;html=1;" vertex="1" parent="C6-elkd42mYy8gBF11th-2">
          <mxGeometry y="40" width="180" height="50" as="geometry" />
        </mxCell>
        <mxCell id="C6-elkd42mYy8gBF11th-6" value="&lt;font style=&quot;font-size: 19px;&quot;&gt;&amp;lt;&amp;lt;Interface&amp;gt;&amp;gt;&lt;/font&gt;" style="text;strokeColor=none;align=center;fillColor=none;html=1;verticalAlign=middle;whiteSpace=wrap;rounded=0;" vertex="1" parent="1">
          <mxGeometry x="220" y="130" width="180" height="50" as="geometry" />
        </mxCell>
        <mxCell id="C6-elkd42mYy8gBF11th-7" value="&lt;font style=&quot;font-size: 19px;&quot;&gt;Student&lt;/font&gt;" style="swimlane;fontStyle=0;childLayout=stackLayout;horizontal=1;startSize=40;horizontalStack=0;resizeParent=1;resizeParentMax=0;resizeLast=0;collapsible=1;marginBottom=0;whiteSpace=wrap;html=1;" vertex="1" parent="1">
          <mxGeometry x="230" y="400" width="160" height="130" as="geometry" />
        </mxCell>
        <mxCell id="C6-elkd42mYy8gBF11th-8" value="&lt;font style=&quot;font-size: 19px;&quot;&gt;learn()&lt;/font&gt;" style="text;strokeColor=none;fillColor=none;align=center;verticalAlign=middle;spacingLeft=4;spacingRight=4;overflow=hidden;points=[[0,0.5],[1,0.5]];portConstraint=eastwest;rotatable=0;whiteSpace=wrap;html=1;" vertex="1" parent="C6-elkd42mYy8gBF11th-7">
          <mxGeometry y="40" width="160" height="40" as="geometry" />
        </mxCell>
        <mxCell id="C6-elkd42mYy8gBF11th-9" value="&lt;font style=&quot;font-size: 19px;&quot;&gt;drinkCoffee()&lt;/font&gt;" style="text;strokeColor=none;fillColor=none;align=center;verticalAlign=middle;spacingLeft=4;spacingRight=4;overflow=hidden;points=[[0,0.5],[1,0.5]];portConstraint=eastwest;rotatable=0;whiteSpace=wrap;html=1;" vertex="1" parent="C6-elkd42mYy8gBF11th-7">
          <mxGeometry y="80" width="160" height="50" as="geometry" />
        </mxCell>
        <mxCell id="C6-elkd42mYy8gBF11th-11" value="" style="endArrow=none;dashed=1;html=1;dashPattern=1 3;strokeWidth=2;rounded=0;" edge="1" parent="1">
          <mxGeometry width="50" height="50" relative="1" as="geometry">
            <mxPoint x="309.5" y="400" as="sourcePoint" />
            <mxPoint x="309.5" y="300" as="targetPoint" />
          </mxGeometry>
        </mxCell>
        <mxCell id="C6-elkd42mYy8gBF11th-12" value="" style="triangle;whiteSpace=wrap;html=1;rotation=-90;" vertex="1" parent="1">
          <mxGeometry x="295" y="270" width="30" height="40" as="geometry" />
        </mxCell>
        <mxCell id="C6-elkd42mYy8gBF11th-13" style="edgeStyle=orthogonalEdgeStyle;rounded=0;orthogonalLoop=1;jettySize=auto;html=1;exitX=0;exitY=0.5;exitDx=0;exitDy=0;" edge="1" parent="1" source="C6-elkd42mYy8gBF11th-12" target="C6-elkd42mYy8gBF11th-12">
          <mxGeometry relative="1" as="geometry" />
        </mxCell>
      </root>
    </mxGraphModel>
  </diagram>
</mxfile>
